<svg width="56" height="58" viewBox="0 0 56 58" fill="none" xmlns="http://www.w3.org/2000/svg">
<g clip-path="url(#clip0_12_36)">
<path d="M20.4233 34.7161C20.4233 34.2564 20.0562 33.8838 19.603 33.8838H11.6481C11.1949 33.8838 10.8278 34.2564 10.8278 34.7161V40.0969C10.8278 40.5566 11.1949 40.9292 11.6481 40.9292H19.603C20.0562 40.9292 20.4233 40.5566 20.4233 40.0969V34.7161ZM18.7827 39.2645H12.4684V35.5483H18.7827V39.2645Z" fill="#071F41"/>
<path d="M39.9326 39.1353H44.352C44.8051 39.1353 45.1723 38.7627 45.1723 38.303C45.1723 37.8434 44.8051 37.4707 44.352 37.4707H39.9326C39.4794 37.4707 39.1122 37.8434 39.1122 38.303C39.1122 38.7627 39.4794 39.1353 39.9326 39.1353Z" fill="#071F41"/>
<path d="M39.9326 35.5484H44.352C44.8051 35.5484 45.1723 35.1757 45.1723 34.7161C45.1723 34.2564 44.8051 33.8838 44.352 33.8838H39.9326C39.4794 33.8838 39.1122 34.2564 39.1122 34.7161C39.1122 35.1757 39.4794 35.5484 39.9326 35.5484Z" fill="#071F41"/>
<path d="M47.8875 43.6928C47.4344 43.6928 47.0672 44.0654 47.0672 44.5251V55.2306C47.0672 55.3899 46.9396 55.5194 46.7826 55.5194H9.21721C9.06026 55.5194 8.93262 55.3899 8.93262 55.2306V36.8118C8.93262 36.3521 8.56545 35.9795 8.1123 35.9795C7.65916 35.9795 7.29199 36.3521 7.29199 36.8118V55.2305C7.29199 56.3076 8.15562 57.1839 9.21721 57.1839H46.7826C47.8441 57.1839 48.7078 56.3076 48.7078 55.2305V44.525C48.7078 44.0654 48.3406 43.6928 47.8875 43.6928Z" fill="#071F41"/>
<path d="M46.7827 28.6146H33.2397V24.3931C37.4775 22.3843 40.4213 18.0188 40.4213 12.9681C40.4213 6.01886 34.8491 0.365234 28 0.365234C25.6229 0.365234 23.3124 1.04883 21.3182 2.34222C19.3777 3.60076 17.8216 5.37522 16.8182 7.4735C16.6205 7.88709 16.7907 8.38503 17.1983 8.58567C17.6062 8.7862 18.0966 8.61352 18.2944 8.20015C20.1142 4.39411 23.8332 2.02983 28 2.02983C33.9446 2.02983 38.7807 6.93672 38.7807 12.9681C38.7807 18.9995 33.9446 23.9064 28 23.9064C22.0553 23.9064 17.2192 18.9995 17.2192 12.9681C17.2192 12.5431 17.2435 12.1148 17.2914 11.6952C17.3436 11.2386 17.0209 10.8255 16.5709 10.7727C16.1204 10.7193 15.7138 11.0471 15.6617 11.5037C15.6066 11.9867 15.5786 12.4794 15.5786 12.9682C15.5786 18.0189 18.5224 22.3844 22.7602 24.3932V28.6149H9.21721C8.15573 28.6149 7.29199 29.4911 7.29199 30.5682V32.9083C7.29199 33.3679 7.65916 33.7406 8.1123 33.7406C8.56545 33.7406 8.93262 33.3679 8.93262 32.9083V30.5682C8.93262 30.409 9.06026 30.2794 9.21721 30.2794H19.8936L27.3825 38.9633C27.5384 39.1439 27.7633 39.2475 28 39.2475C28.2366 39.2475 28.4615 39.1439 28.6174 38.9633L36.1063 30.2794H46.7827C46.9397 30.2794 47.0673 30.409 47.0673 30.5682V40.6186C47.0673 41.0782 47.4345 41.4509 47.8876 41.4509C48.3408 41.4509 48.7079 41.0782 48.7079 40.6186V30.5682C48.7078 29.4909 47.8442 28.6146 46.7827 28.6146ZM28 37.151L22.0737 30.2792H23.5804C24.0336 30.2792 24.4008 29.9066 24.4008 29.4469V25.0309C25.5406 25.3817 26.7487 25.5711 27.9998 25.5711C29.251 25.5711 30.4593 25.3817 31.5989 25.0309V29.4469C31.5989 29.9066 31.9661 30.2792 32.4193 30.2792H33.926L28 37.151Z" fill="#071F41"/>
<path d="M11.6479 49.1119H13.8577C14.3108 49.1119 14.678 48.7392 14.678 48.2796C14.678 47.8199 14.3108 47.4473 13.8577 47.4473H11.6479C11.1948 47.4473 10.8276 47.8199 10.8276 48.2796C10.8276 48.7392 11.1949 49.1119 11.6479 49.1119Z" fill="#071F41"/>
<path d="M19.603 47.4473H17.3933C16.9402 47.4473 16.573 47.8199 16.573 48.2796C16.573 48.7392 16.9402 49.1119 17.3933 49.1119H19.603C20.0562 49.1119 20.4233 48.7392 20.4233 48.2796C20.4233 47.8199 20.056 47.4473 19.603 47.4473Z" fill="#071F41"/>
<path d="M25.3483 49.1119C25.8014 49.1119 26.1686 48.7392 26.1686 48.2796C26.1686 47.8199 25.8014 47.4473 25.3483 47.4473H23.1385C22.6854 47.4473 22.3182 47.8199 22.3182 48.2796C22.3182 48.7392 22.6854 49.1119 23.1385 49.1119H25.3483Z" fill="#071F41"/>
<path d="M31.0935 49.1119C31.5466 49.1119 31.9138 48.7392 31.9138 48.2796C31.9138 47.8199 31.5466 47.4473 31.0935 47.4473H28.8838C28.4306 47.4473 28.0635 47.8199 28.0635 48.2796C28.0635 48.7392 28.4306 49.1119 28.8838 49.1119H31.0935Z" fill="#071F41"/>
<path d="M11.6479 53.5962H20.4869C20.94 53.5962 21.3072 53.2236 21.3072 52.7639C21.3072 52.3043 20.94 51.9316 20.4869 51.9316H11.6479C11.1948 51.9316 10.8276 52.3043 10.8276 52.7639C10.8276 53.2236 11.1949 53.5962 11.6479 53.5962Z" fill="#071F41"/>
<path d="M34.6927 50.5217C34.6927 52.2168 36.0521 53.5959 37.7228 53.5959C38.5936 53.5959 39.3792 53.2207 39.9325 52.6219C40.4857 53.2207 41.2713 53.5959 42.1422 53.5959C43.8129 53.5959 45.1722 52.2168 45.1722 50.5217C45.1722 48.8264 43.8129 47.4473 42.1422 47.4473C41.2713 47.4473 40.4857 47.8225 39.9325 48.4213C39.3792 47.8225 38.5936 47.4473 37.7228 47.4473C36.0521 47.4473 34.6927 48.8264 34.6927 50.5217ZM42.1423 49.1119C42.9085 49.1119 43.5317 49.7443 43.5317 50.5217C43.5317 51.2989 42.9085 51.9313 42.1423 51.9313C41.3761 51.9313 40.7529 51.2989 40.7529 50.5217C40.7529 49.7443 41.3761 49.1119 42.1423 49.1119ZM39.1123 50.5217C39.1123 51.2989 38.489 51.9313 37.7229 51.9313C36.9567 51.9313 36.3335 51.2989 36.3335 50.5217C36.3335 49.7443 36.9567 49.1119 37.7229 49.1119C38.489 49.1119 39.1123 49.7443 39.1123 50.5217Z" fill="#071F41"/>
<path d="M25.2824 17.324C24.9036 17.0724 24.3951 17.1803 24.1469 17.5648C23.8988 17.9495 24.0051 18.4654 24.3843 18.717C25.445 19.421 26.1688 19.6295 27.1055 19.682V20.5993C27.1055 21.0589 27.4727 21.4316 27.9258 21.4316C28.3789 21.4316 28.7461 21.0589 28.7461 20.5993V19.6161C30.6055 19.2491 31.6915 17.695 31.932 16.2434C32.2408 14.3797 31.2798 12.7592 29.4838 12.1151C29.2415 12.0282 28.9934 11.9369 28.7461 11.8419V7.84994C29.372 7.99942 29.745 8.32091 29.7771 8.34943C30.1103 8.65572 30.6253 8.63286 30.9307 8.29672C31.2379 7.95881 31.2169 7.43224 30.8839 7.12063C30.8367 7.07668 30.0437 6.35214 28.7461 6.1566V5.33718C28.7461 4.87753 28.3789 4.50488 27.9258 4.50488C27.4727 4.50488 27.1055 4.87753 27.1055 5.33718V6.22041C26.9806 6.24816 26.8538 6.28023 26.7242 6.31985C25.5418 6.68128 24.6583 7.70801 24.4185 8.99951C24.1998 10.1767 24.5713 11.3119 25.388 11.9617C25.8225 12.3075 26.3636 12.6242 27.1055 12.9589V18.0152C26.4586 17.9683 26.0145 17.8099 25.2824 17.324ZM26.4006 10.652C26.0676 10.3871 25.9259 9.87198 26.0307 9.30779C26.1251 8.79976 26.4572 8.18885 27.1055 7.94615V11.1079C26.84 10.9624 26.5998 10.8106 26.4006 10.652ZM28.9371 13.6847C30.4745 14.236 30.3796 15.5714 30.314 15.9676C30.1856 16.7432 29.6516 17.5654 28.7461 17.8889V13.6153C28.8096 13.6384 28.8718 13.6613 28.9371 13.6847Z" fill="#071F41"/>
</g>
<defs>
<clipPath id="clip0_12_36">
<rect width="56" height="56.8182" fill="white" transform="translate(0 0.365234)"/>
</clipPath>
</defs>
</svg>
