<svg width="83" height="90" viewBox="0 0 83 90" fill="none" xmlns="http://www.w3.org/2000/svg">
<path d="M41.6532 89.3955C37.6792 89.396 33.7794 88.5391 29.9828 86.8268C25.6043 84.852 21.3987 82.4265 17.4834 79.6179C17.3122 79.4951 17.1509 79.3648 16.9984 79.227L12.7866 82.6038C12.4945 82.8387 12.0856 82.8649 11.7655 82.6689C11.6197 82.5798 8.15646 80.4477 5.22441 77.0381C2.28214 73.617 0.992591 70.257 0.939248 70.116C0.822784 69.8084 0.886795 69.4613 1.10505 69.2158L3.69349 66.2995C3.75706 66.2281 3.82907 66.1696 3.90641 66.124C2.58308 63.5579 0.806782 58.7835 0.16623 50.9221C-0.400533 43.9606 0.483616 38.2522 2.79378 33.9552C2.91736 33.7251 3.10006 33.3488 3.29787 32.9423C3.63659 32.2464 3.98643 31.5261 4.2278 31.1329C4.46562 30.7455 4.72433 30.2991 5.01149 29.8044C7.23942 25.9635 11.3859 18.8149 20.8599 13.3672C28.8893 8.75053 32.8846 8.27047 36.4092 7.84671C38.506 7.59493 40.3161 7.37684 42.753 6.28995C48.9531 3.52574 50.1915 1.26374 50.2035 1.24114C50.3218 1.01596 50.5351 0.843968 50.7827 0.782797C51.029 0.72074 51.2957 0.761077 51.5055 0.905583C52.155 1.35328 55.3973 3.70083 55.4324 5.96947C55.4498 7.06922 55.067 7.82189 54.7874 8.37065C54.5007 8.93404 54.5109 8.94734 54.6318 9.10825C54.7616 9.28024 54.9981 9.3751 55.3733 9.51561C56.2686 9.85116 57.6212 10.3574 57.6839 12.962C57.7341 15.0365 56.6357 16.1948 55.7418 17.0348C57.5088 17.9133 62.0398 20.3105 65.6337 23.4506C67.9554 25.479 69.7762 27.8505 70.8955 29.4817C71.7489 30.7264 72.2633 31.5473 72.5571 32.1094C73.7022 31.491 74.4805 31.2255 75.0855 31.019C75.7954 30.7769 76.1866 30.6431 76.8009 30.0752C78.8444 28.1865 82.1831 29.671 82.5868 29.9494C82.8148 30.1063 82.9628 30.3536 82.9931 30.6271C83.0495 31.1351 82.7584 31.4494 82.2294 32.0199C81.3497 32.9684 79.52 34.9423 78.6412 38.2916C77.854 41.293 78.0184 44.7811 78.1634 47.8578C78.2549 49.8006 78.3412 51.6353 78.1656 53.0857C77.5917 57.8269 76.3973 67.6936 69.0952 75.804C65.6035 79.6826 61.2214 83.0705 56.6886 85.4456C56.6095 85.5054 56.5215 85.5502 56.4286 85.5808C55.3102 86.1566 54.1842 86.6699 53.0609 87.1136C49.2091 88.6353 45.3978 89.3955 41.6532 89.3955ZM36.7711 87.1242C43.4135 88.3645 49.8808 86.8786 55.5178 84.0386C55.9085 83.2456 57.0394 80.5922 56.9549 76.5802C56.8562 71.8523 56.0343 70.3589 56.0259 70.3448C55.7871 69.9259 55.9227 69.3846 56.3375 69.1373C56.7522 68.8895 57.2847 69.0101 57.5417 69.4179C57.6519 69.593 58.6227 71.2792 58.733 76.543C58.7872 79.1543 58.3769 81.2421 57.9319 82.7119C61.7579 80.4322 65.1158 77.57 67.7718 74.6205C69.1503 73.0895 70.2998 71.488 71.2613 69.8678C70.9359 69.0748 70.2034 66.7836 70.6012 62.9364C71.0644 58.4559 71.2346 56.0126 71.2364 55.9887C71.2698 55.5002 71.7014 55.1363 72.1841 55.1651C72.6744 55.1983 73.0443 55.6216 73.01 56.1101C73.0083 56.1349 72.8362 58.6035 72.3699 63.1186C72.1663 65.092 72.2886 66.5898 72.4753 67.6213C75.3176 61.8256 76.0092 56.1092 76.4008 52.8738C76.5582 51.5711 76.4755 49.8082 76.3879 47.942C76.2368 44.7376 76.0657 41.1064 76.9218 37.8439C77.8371 34.3559 79.64 32.218 80.6811 31.0806C79.853 30.8656 78.6848 30.7517 78.01 31.3762C77.1187 32.1998 76.4435 32.4303 75.6616 32.6972C74.9224 32.9489 74.0031 33.2628 72.4033 34.2491C70.9266 35.1595 70.8915 36.3528 70.9564 38.2252C70.9999 39.4636 71.0484 40.8675 70.3229 42.1082C69.0543 44.278 67.5096 43.7793 66.4881 43.4517C65.9351 43.2735 65.4541 43.1184 64.9527 43.2345C64.9056 43.6175 65.2341 44.6911 65.4781 45.489C66.0391 47.3228 66.8068 49.8339 66.3912 52.3685C66.1587 53.7843 65.7328 54.6504 65.0505 55.0941C64.2543 55.6128 63.4067 55.396 62.7261 55.2205C61.8313 54.9909 61.657 55.0117 61.4001 55.3836C60.4164 56.8029 60.1417 58.0986 59.7612 59.8916C59.6007 60.6474 59.4184 61.5042 59.1597 62.4679C58.7556 63.9732 57.98 65.026 56.8535 65.5969C55.1422 66.4648 52.6773 66.2259 49.0985 64.8451C46.082 63.6816 43.3362 63.4138 41.5643 63.3948C41.555 63.3948 41.5456 63.3948 41.5363 63.3948C40.7637 63.3948 40.0663 63.7547 39.299 64.3168C34.1666 69.222 28.5146 71.9897 22.9447 72.2411C21.8685 72.2894 20.735 72.2495 19.5873 72.144C18.336 72.4574 17.5816 73.4219 17.2744 74.3435C16.8917 75.4907 17.018 77.1006 18.5218 78.1786C22.342 80.9189 26.4444 83.2855 30.7158 85.2115C32.0067 85.7935 33.2989 86.259 34.5862 86.6171C35.1539 86.1898 37.7806 84.1122 40.2032 80.5279C40.016 80.1051 38.9221 77.5461 38.7896 75.2797C38.7238 74.1493 38.6856 72.6959 38.8759 72.1901L40.5401 72.8142C40.5401 72.8142 40.5512 72.7943 40.5637 72.7411C40.5588 72.7615 40.453 73.2628 40.565 75.1764C40.6344 76.3661 41.0353 77.7052 41.3709 78.6445C44.0736 73.9729 44.471 72.3084 44.4746 72.2916C44.5817 71.8182 45.0533 71.515 45.529 71.6161C46.0051 71.7176 46.3118 72.1781 46.2149 72.6537C46.1758 72.8466 45.7446 74.687 42.6903 79.91C40.6188 83.4522 38.2109 85.8644 36.7711 87.1242ZM2.80756 69.9733C3.25964 70.9862 4.47273 73.4401 6.57486 75.8843C8.67522 78.3271 11.1276 80.1086 12.1767 80.8183L15.5039 78.1503C14.2855 77.2176 12.3301 75.7012 11.0823 74.6316C7.78307 71.8067 5.40667 68.5544 5.30709 68.417C5.2662 68.3607 5.2333 68.3013 5.20708 68.2406C5.10439 68.1049 4.97504 67.9258 4.82524 67.7002L2.80756 69.9733ZM8.72278 69.7911C9.65983 70.8505 10.8743 72.117 12.2403 73.2867C13.076 74.0026 14.2655 74.9459 15.3186 75.765C15.2803 75.1143 15.3666 74.4445 15.5875 73.7827C15.8475 73.0026 16.2658 72.3253 16.8006 71.7787C13.7374 71.2668 10.7938 70.4441 8.72278 69.7911ZM6.66555 67.2206C7.88308 67.6648 13.9352 69.7924 19.5037 70.3519C19.8509 70.2885 20.2123 70.2601 20.5799 70.2663C22.2975 70.2973 23.94 70.1759 25.4572 69.8997C31.0319 68.8838 34.6645 65.8407 36.8346 64.0224C37.2169 63.7015 37.5601 63.4152 37.8655 63.1762C37.9619 63.1009 38.0597 63.026 38.1584 62.952C39.6933 61.4741 41.1838 59.7919 42.6107 57.9164C48.2517 50.5019 47.9009 46.9562 47.7325 45.2527L47.7085 45.0049C47.6689 44.5643 47.4208 43.766 47.1581 42.9216C46.4754 40.7256 45.5405 37.7185 46.4238 35.4995C47.239 33.4516 49.3154 33.2672 51.3228 33.089C52.7626 32.9614 54.2518 32.8288 55.4124 32.0615C57.8995 30.4166 56.646 26.1842 55.5138 23.9435C55.0661 23.0579 54.5145 22.3916 54.0277 21.8043C53.1934 20.7977 52.331 19.7564 52.7257 18.1864C52.9778 17.1833 53.6748 16.5352 54.3482 15.9084C55.2026 15.1132 55.9409 14.4261 55.9067 13.0055C55.8725 11.5972 55.4729 11.4478 54.7483 11.1761C54.2624 10.9944 53.6579 10.7678 53.2107 10.1739C52.4141 9.11711 52.8693 8.2226 53.2014 7.56922C53.4396 7.10113 53.6646 6.65875 53.6543 5.99784C53.6419 5.1676 52.3537 3.82184 51.1935 2.88787C50.2902 3.94285 48.1783 5.81388 43.4793 7.90921C40.7966 9.10514 38.7692 9.34894 36.6226 9.60692C33.2665 10.0103 29.4627 10.4673 21.7481 14.9031C12.6861 20.1137 8.84547 26.7352 6.55086 30.6923C6.2557 31.2007 5.98899 31.6599 5.74495 32.0584C5.54891 32.378 5.18796 33.12 4.89858 33.7158C4.68788 34.1484 4.49318 34.5483 4.3616 34.7934C2.37193 38.4929 1.5269 43.3839 1.8434 49.3481C3.17429 44.8795 5.89208 38.2354 11.2717 32.0611C20.2896 21.7103 37.8103 16.0622 38.5518 15.8269C39.0212 15.6797 39.52 15.9368 39.6684 16.4031C39.8173 16.8694 39.5591 17.3681 39.0914 17.5166C38.923 17.5702 22.9963 22.7064 13.9614 31.7805C15.7124 32.3554 19.7784 33.5075 22.6056 32.8625C23.7684 32.5979 24.7735 32.3465 25.6599 32.1245C27.854 31.5748 29.4392 31.1777 31.3048 31.1054C31.3164 31.1045 31.3288 31.1045 31.3399 31.1045C31.8151 31.1045 32.2094 31.4791 32.2276 31.9565C32.2467 32.4458 31.8649 32.8581 31.3741 32.8767C29.773 32.9392 28.3279 33.2849 26.3898 33.7694L28.122 35.4273C28.4763 35.7668 28.4879 36.3275 28.1483 36.6808C27.8073 37.0341 27.2455 37.0456 26.8912 36.707L24.3499 34.2748C23.9253 34.3772 23.4764 34.4835 23.0003 34.5917C19.1321 35.4703 13.6845 33.5855 12.635 33.1998C12.6279 33.2078 12.6208 33.2162 12.6137 33.2242C9.72695 36.5376 7.63371 40.0244 6.12501 43.2066C8.49519 41.9207 12.3652 40.2611 14.8283 41.4872C16.4641 42.301 17.7087 43.7656 18.9134 45.1818C20.2296 46.7301 21.4729 48.1925 23.1021 48.7421C23.5671 48.899 23.8164 49.4021 23.6591 49.8662C23.5017 50.3299 22.9981 50.579 22.5318 50.4217C20.4359 49.7142 18.9725 47.993 17.5572 46.3285C17.0433 45.7239 16.5419 45.1344 16.0258 44.6091C15.6528 45.7607 15.031 47.9394 15.011 49.7182C14.9825 52.251 16.2507 55.8375 16.2632 55.8734C16.4276 56.3349 16.1863 56.842 15.724 57.006C15.2617 57.1709 14.7527 56.9297 14.5882 56.4683C14.5313 56.31 13.2004 52.5502 13.2324 49.6987C13.2604 47.1951 14.2802 44.1751 14.5655 43.3781C14.3922 43.266 14.2157 43.1645 14.0348 43.0741C11.8157 41.9712 6.72022 44.801 5.10973 45.8799C5.04883 45.9207 4.98482 45.9531 4.91858 45.977C2.91069 51.0227 2.42261 54.7644 2.41461 54.83C2.41327 54.8384 2.41239 54.8464 2.41105 54.8548C3.63704 62.8793 6.08856 66.4688 6.66555 67.2206ZM41.8724 61.6261C43.7936 61.6727 46.6345 61.9932 49.7399 63.1909C52.7302 64.3447 54.8532 64.6217 56.0481 64.0153C56.7144 63.678 57.17 63.0215 57.4425 62.0087C57.6888 61.0911 57.8582 60.2946 58.0213 59.5246C58.4129 57.6806 58.7508 56.088 59.9372 54.3761C60.9387 52.9301 62.3354 53.2892 63.1693 53.5037C63.5302 53.5959 63.9387 53.7014 64.0788 53.6092C64.1361 53.572 64.4326 53.3228 64.6366 52.0817C64.9856 49.9553 64.3157 47.7656 63.7774 46.0063C63.2782 44.3737 62.9172 43.1942 63.4098 42.3134C63.5618 42.0421 63.8658 41.6857 64.4539 41.5315C65.4768 41.2633 66.3405 41.5408 67.0348 41.7642C68.007 42.0763 68.239 42.1525 68.7876 41.2146C69.2539 40.4167 69.2183 39.3821 69.1801 38.2868C69.1214 36.601 69.0489 34.5301 71.0235 33.0443C70.3772 31.8776 68.027 27.9001 64.4619 24.7844C60.7102 21.506 55.7298 18.9998 54.5212 18.4138C54.4918 18.4803 54.4678 18.5481 54.4505 18.6172C54.2882 19.2631 54.5492 19.6487 55.3986 20.6744C55.9183 21.3012 56.5646 22.0818 57.102 23.1448C58.8361 26.577 59.6918 31.3585 56.3957 33.5389C54.859 34.5549 53.0645 34.714 51.4811 34.855C49.5692 35.0248 48.469 35.1688 48.077 36.1538C47.4249 37.7912 48.2525 40.453 48.8566 42.3968C49.1607 43.3742 49.423 44.2186 49.4799 44.8458L49.5021 45.0781C49.6932 47.0072 50.0897 51.0201 44.0278 58.9883C43.3242 59.912 42.6049 60.7919 41.8724 61.6261Z" fill="#DFE2EB"/>
</svg>
