<svg width="57" height="57" viewBox="0 0 57 57" fill="none" xmlns="http://www.w3.org/2000/svg">
<path d="M56.9378 44.5803L56.7232 43.2832C56.5864 42.4543 55.9402 41.8528 55.1866 41.8528C55.0921 41.8528 54.9967 41.8625 54.9029 41.8818L50.5347 42.7805L52.5129 41.2994C53.0314 40.9113 53.2934 40.2171 53.1803 39.5284C53.1489 39.3398 53.09 39.1588 53.0048 38.9893L52.4061 37.8021C52.201 37.3942 51.8512 37.0911 51.4475 36.971C51.2497 36.912 51.043 36.8988 50.8412 36.9282C51.0615 35.5666 51.1751 34.1759 51.1751 32.7602C51.1751 32.1321 50.8378 31.5915 50.3561 31.3515C50.9856 29.6746 51.0286 27.7548 50.4063 25.9967C50.3559 25.8538 50.2809 25.7262 50.1839 25.6174C50.0877 25.5096 49.9751 25.4263 49.8473 25.3688C49.1017 25.0362 48.318 24.8677 47.5181 24.8677C47.4158 24.8677 47.314 24.8706 47.2125 24.876C47.0983 22.3003 45.195 20.2441 42.8714 20.2441C42.5654 20.2441 42.267 20.2805 41.9788 20.3484C42.179 19.0072 42.0611 17.6041 41.5948 16.2868C41.5447 16.142 41.4694 16.012 41.3671 15.8956C41.2687 15.7854 41.1532 15.7003 41.0251 15.6434C40.2219 15.2851 39.3777 15.1035 38.516 15.1035C37.2178 15.1035 35.976 15.5122 34.904 16.2721C34.5123 15.0014 33.8664 13.8085 32.964 12.7955C32.6997 12.4989 32.3481 12.3355 31.9741 12.3355C31.6 12.3355 31.2484 12.4989 30.9838 12.7957L26.9943 17.2741C26.256 16.5366 25.2845 16.0957 24.23 16.0957C23.9908 16.0957 23.7492 16.1192 23.512 16.1655C22.6525 16.3331 21.8616 16.8042 21.2553 17.4942C20.4778 17.074 19.5871 16.9307 18.7312 17.0975C18.5429 17.1342 18.3602 17.1859 18.1829 17.2489V13.7979C18.1829 11.4214 16.4775 9.48454 14.3679 9.44369V7.48651C15.0137 7.36137 15.5067 6.73101 15.5067 5.97255V1.53808C15.5067 0.690044 14.8907 0 14.1334 0H7.43279C6.6755 0 6.0595 0.690044 6.0595 1.53808V5.97255C6.0595 6.73101 6.55257 7.36137 7.19834 7.48651V9.44344C5.08875 9.48417 3.38346 11.421 3.38346 13.7977V40.732C1.73837 42.396 0.714233 44.7178 0.714233 47.2853C0.714233 52.3358 4.67204 56.4448 9.53699 56.4448L42.5164 56.434C43.642 56.4335 44.7007 55.8794 45.4207 54.914C46.1221 53.9742 46.4201 52.7534 46.2484 51.5495L52.8355 52.8754C52.9267 52.8937 53.02 52.9031 53.1127 52.9031C53.4412 52.9031 53.7559 52.7901 54.0224 52.5767C54.3651 52.3026 54.597 51.8782 54.6589 51.4127L54.8373 50.0719C54.863 49.8798 54.8601 49.6864 54.8288 49.4968C54.7154 48.8112 54.2493 48.2672 53.6412 48.1111L51.3195 47.5146L55.6833 46.6167C56.0949 46.5321 56.4519 46.2733 56.6888 45.8881C56.9252 45.5038 57.0136 45.0394 56.9378 44.5803ZM47.5181 26.7131C48.0141 26.7131 48.5018 26.8011 48.9707 26.9745C49.3897 28.4035 49.2329 29.9449 48.5768 31.2182H46.3571L47.0654 30.4231C47.3868 30.0623 47.3862 29.478 47.0639 29.1179C46.7417 28.7579 46.22 28.7585 45.8987 29.1194L45.524 29.5401C45.3483 28.8923 45.0416 28.3122 44.6384 27.8364C45.4562 27.1091 46.4601 26.7131 47.5181 26.7131ZM42.8714 22.0895C44.3594 22.0895 45.57 23.4494 45.57 25.121C45.57 25.152 45.5687 25.1827 45.5679 25.2134C44.6994 25.5298 43.8988 26.0583 43.216 26.776C43.1073 26.7299 42.9971 26.687 42.884 26.652C42.6429 25.1936 41.7655 24.0247 40.6063 23.4787C41.0874 22.644 41.9221 22.0895 42.8714 22.0895ZM38.5158 16.9489C39.0755 16.9489 39.6255 17.0503 40.1554 17.2509C40.5814 18.6693 40.4944 20.193 39.9516 21.5128C39.5055 21.968 39.1435 22.5254 38.8961 23.1519C38.749 23.1615 38.6019 23.1797 38.4565 23.208C37.8109 23.3339 37.2088 23.6477 36.705 24.1027C36.5331 23.7508 36.3228 23.4261 36.0817 23.1337L37.9713 21.0126C38.2927 20.6519 38.2921 20.0675 37.9698 19.7076C37.6477 19.3476 37.126 19.3482 36.8045 19.7091L34.7393 22.0274C34.3463 21.8193 33.9216 21.6746 33.4752 21.6069C33.668 20.5057 34.1452 19.468 34.8832 18.6394C35.8543 17.5492 37.1444 16.9489 38.5158 16.9489ZM32.202 31.2182H31.4878C31.3675 30.8754 31.0701 30.6324 30.7213 30.6324C30.3725 30.6324 30.0751 30.8755 29.9548 31.2182H29.1145C29.3097 30.8624 29.2702 30.3909 28.9948 30.083C28.6727 29.723 28.1509 29.7236 27.8295 30.0844L27.0529 30.956C26.9831 31.0343 26.9295 31.1235 26.89 31.2182H25.213C24.5849 30.1387 24.2016 28.8646 24.1562 27.4939H37.2284C37.183 28.8646 36.7997 30.1387 36.1716 31.2182H34.4264C34.3871 31.1235 34.3333 31.0341 34.2636 30.9559L33.4871 30.0842C33.1655 29.7236 32.644 29.7226 32.3219 30.0828C32.0462 30.3906 32.0068 30.8622 32.202 31.2182ZM30.2857 25.6482C30.5963 24.359 31.6462 23.4077 32.8905 23.4077C34.135 23.4077 35.1849 24.3591 35.4955 25.6482H30.2857ZM31.9707 14.3007C32.7544 15.2494 33.2726 16.3758 33.5268 17.5597C33.1061 18.0717 32.7566 18.6375 32.481 19.2395C32.3558 19.1536 32.2092 19.1033 32.0517 19.1033H30.9538C30.4987 19.1033 30.1298 19.5165 30.1298 20.0262C30.1298 20.5358 30.4987 20.949 30.9538 20.949H31.9169C31.8628 21.2038 31.8207 21.4618 31.7901 21.7216C31.463 21.8178 31.1505 21.9549 30.8581 22.1294C30.3089 21.0679 29.3994 20.2768 28.3219 19.9595C28.3216 19.9569 28.3211 19.9543 28.3207 19.9517C28.2561 19.5341 28.1434 19.1379 27.9897 18.7696L31.9707 14.3007ZM17.0757 22.628C17.0273 22.4766 16.9907 22.3214 16.9667 22.1656C16.7304 20.6397 17.6488 19.1818 19.0136 18.9157C19.1576 18.8876 19.3038 18.8733 19.4482 18.8733C19.991 18.8733 20.5098 19.0673 20.9482 19.4341C21.1296 19.5859 21.359 19.6473 21.5822 19.604C21.8055 19.5606 22.0029 19.4162 22.1281 19.2047C22.515 18.5512 23.1068 18.1176 23.7945 17.9835C23.9388 17.9553 24.0854 17.9411 24.23 17.9411C25.4508 17.9411 26.4884 18.9194 26.6969 20.2673C26.7209 20.4218 26.7332 20.5827 26.7334 20.7457C26.7341 21.2234 27.0603 21.6216 27.4853 21.6634C28.4065 21.7541 29.1907 22.4034 29.5542 23.3182C29.0675 23.9724 28.7301 24.7712 28.602 25.6482H23.903C23.3187 25.6482 22.8174 26.0521 22.6084 26.6238C21.5746 25.8352 20.3562 25.4103 19.0793 25.4103C18.2794 25.4103 17.4958 25.579 16.7496 25.9117C16.623 25.9683 16.5099 26.0519 16.4134 26.1599C16.3156 26.2694 16.2406 26.3978 16.1914 26.5385C16.0018 27.0741 15.8753 27.6248 15.807 28.1789C15.5117 27.8023 15.3036 27.3341 15.2223 26.8087C15.0285 25.5566 15.6137 24.3099 16.645 23.7769C17.0326 23.5765 17.2195 23.078 17.0757 22.628ZM19.532 30.9659L19.7568 31.2182H17.7778C17.3335 30.0638 17.2661 28.7498 17.6267 27.5174C18.0963 27.3437 18.5838 27.2559 19.0793 27.2559C20.3209 27.2559 21.4889 27.7994 22.3679 28.7861C22.4848 28.9174 22.5936 29.0549 22.6959 29.1971C22.8356 29.9051 23.0501 30.5815 23.3265 31.2181H22.0848L20.6986 29.6621C20.377 29.3014 19.8553 29.3004 19.5334 29.6606C19.2112 30.0207 19.2105 30.6051 19.532 30.9659ZM16.023 31.2182H13.0856C13.2165 30.3243 13.6966 29.5623 14.363 29.1129C14.7576 29.7049 15.2725 30.1835 15.8657 30.5078C15.9077 30.7472 15.9592 30.9846 16.023 31.2182ZM7.70744 1.8457H13.8588V5.66493H7.70744V1.8457ZM12.7199 7.51063V9.4416H8.84639V7.51063H12.7199ZM5.03151 17.5403H10.3822C10.8373 17.5403 11.2061 17.1271 11.2061 16.6174C11.2061 16.1078 10.8373 15.6946 10.3822 15.6946H5.03151V13.7977C5.03151 12.4134 6.0339 11.2873 7.26601 11.2873H14.3003C15.5325 11.2873 16.5349 12.4134 16.5349 13.7977V15.6946H14.9964C14.5412 15.6946 14.1724 16.1078 14.1724 16.6174C14.1724 17.1271 14.5412 17.5403 14.9964 17.5403H16.5349V18.3594C15.5909 19.396 15.1006 20.9163 15.3427 22.4801C15.3431 22.4832 15.3437 22.4864 15.3441 22.4896C14.0222 23.5053 13.3179 25.3111 13.5984 27.124C13.6148 27.2298 13.6353 27.3339 13.6577 27.4369C13.2461 27.6911 12.8764 28.0194 12.5595 28.4035H5.03151V17.5403ZM5.0314 30.2491H11.6027C11.5153 30.5602 11.4535 30.8839 11.4234 31.2182H11.2846C10.5262 31.2182 9.90909 31.9099 9.90909 32.76C9.90909 34.2254 10.0307 35.6639 10.2664 37.0713C10.0296 37.05 9.78682 37.0386 9.53985 37.0386C8.54339 37.0386 7.59395 37.2156 6.86677 37.5373C5.75441 38.0292 5.44691 38.7277 5.37978 39.2111C5.2619 39.2768 5.1461 39.3462 5.0314 39.4172V30.2491ZM15.4652 41.586C15.7619 41.8519 15.9433 42.0779 16.0485 42.241C16.0386 42.2411 16.0282 42.2412 16.0178 42.2412C15.5514 42.2412 14.7135 42.0307 13.7607 41.4399C13.4059 41.2198 13.0791 40.9711 12.8154 40.721C12.508 40.4292 12.0572 40.4295 11.7501 40.7211C11.4864 40.9715 11.1597 41.22 10.8052 41.4397C9.85219 42.0307 9.01426 42.2412 8.548 42.2412C8.53735 42.2412 8.52713 42.2411 8.51713 42.241C8.62216 42.0779 8.80354 41.8518 9.10039 41.5857C9.35978 41.3532 9.46909 40.9688 9.37758 40.6111C9.28595 40.2533 9.01151 39.992 8.68138 39.9487C7.87729 39.8432 7.36885 39.6139 7.13077 39.4471C7.42905 39.239 8.18315 38.8843 9.54018 38.8843C10.6641 38.8843 11.4855 39.1489 11.8795 39.3967C12.1301 39.5542 12.4356 39.5542 12.6862 39.3969C13.0804 39.1491 13.902 38.8844 15.0258 38.8844C16.383 38.8844 17.137 39.2392 17.4351 39.4472C17.1972 39.6142 16.6886 39.8433 15.8843 39.9489C15.5542 39.9923 15.2796 40.2534 15.1881 40.6113C15.0963 40.9692 15.2056 41.3536 15.4652 41.586ZM13.8169 52.8184L13.8453 52.9894C13.9433 53.5821 14.1499 54.1261 14.4386 54.5991H9.53699C5.58083 54.5991 2.36218 51.3182 2.36218 47.2853C2.36218 44.5291 3.86598 42.1253 6.08037 40.8788C6.33471 41.0915 6.65177 41.2748 7.02794 41.4227C6.87875 41.7081 6.77482 42.0149 6.75032 42.335C6.7178 42.7605 6.83403 43.1645 7.07793 43.4729C7.40016 43.8804 7.89476 44.087 8.548 44.087C9.41856 44.087 10.5608 43.701 11.6034 43.0545C11.8434 42.9058 12.0704 42.7487 12.2829 42.5845C12.4953 42.7485 12.7222 42.9057 12.9624 43.0547C14.005 43.701 15.1472 44.0869 16.0178 44.087H16.0179C16.6709 44.087 17.1655 43.8804 17.4877 43.473C17.7317 43.1647 17.848 42.7606 17.8154 42.335C17.7909 42.0149 17.6869 41.7081 17.5378 41.4227C17.9139 41.2747 18.2311 41.0913 18.4854 40.8788C20.2416 41.8674 21.5502 43.584 22.0167 45.627L16.1891 48.1065C14.4832 48.8324 13.4856 50.814 13.8169 52.8184ZM44.156 53.7307C43.7497 54.2755 43.1517 54.5881 42.5156 54.5883L41.6508 54.5887L41.1105 51.3212C41.0275 50.82 40.5979 50.4886 40.1502 50.5818C39.7028 50.6746 39.4072 51.156 39.49 51.6572L39.9749 54.5893L37.1398 54.5905L36.7745 52.381C36.6916 51.8798 36.2618 51.5488 35.8142 51.6416C35.3668 51.7344 35.0712 52.2158 35.154 52.717L35.4639 54.5913L28.8693 54.5941L28.373 51.5932C28.2899 51.0921 27.8604 50.7611 27.4127 50.854C26.9652 50.9467 26.6697 51.4283 26.7525 51.9295L27.1934 54.5948L17.5646 54.599C17.5643 54.599 17.5641 54.599 17.5639 54.599C16.5343 54.599 15.6518 53.7807 15.4653 52.6529L15.437 52.4819C15.2507 51.3553 15.813 50.2408 16.774 49.8318L20.0124 48.4539L20.2537 49.9123C20.3272 50.3566 20.6735 50.6672 21.0628 50.6672C21.1127 50.6672 21.1632 50.662 21.214 50.6516C21.6613 50.5587 21.9569 50.0772 21.8739 49.576L21.5781 47.7878L26.3851 45.7425C26.8105 45.5615 27.0244 45.0285 26.8628 44.552C26.7012 44.0755 26.2247 43.836 25.8 44.017L23.5631 44.9688C22.9355 42.4804 21.3234 40.4018 19.1856 39.2109C19.1185 38.7276 18.811 38.0291 17.6987 37.5371C16.9715 37.2155 16.0221 37.0384 15.0256 37.0384C14.3399 37.0384 13.685 37.1232 13.1069 37.2776V36.7202C13.1069 36.2106 12.7381 35.7974 12.2829 35.7974C12.0905 35.7974 11.9141 35.8717 11.7738 35.9955C11.6438 35.0329 11.5711 34.0552 11.559 33.0637H38.3972C38.8524 33.0637 39.2212 32.6505 39.2212 32.1408C39.2212 31.6312 38.8524 31.218 38.3972 31.218H38.06C38.5847 30.0077 38.8811 28.6507 38.8811 27.2166C38.8811 26.4024 38.3249 25.7317 37.6161 25.6555C37.9247 25.3296 38.3099 25.1098 38.7392 25.026C38.865 25.0016 38.9926 24.9891 39.1188 24.9891C40.1826 24.9891 41.0865 25.8415 41.2681 27.0156C41.2891 27.1515 41.2999 27.2918 41.3 27.4327C41.3005 27.9106 41.6268 28.309 42.0519 28.3509C43.0366 28.4477 43.8422 29.2772 44.0111 30.3679C44.0559 30.6579 44.0503 30.9441 44.0054 31.218H43.1213C42.6661 31.218 42.2973 31.6312 42.2973 32.1408C42.2973 32.6505 42.6661 33.0637 43.1213 33.0637H49.5254C49.505 34.7565 49.3103 36.4102 48.9472 38.0146L44.4817 40.9669C44.2086 39.9023 43.5738 38.9993 42.6992 38.451C41.7182 37.8362 40.5525 37.7401 39.5011 38.1873L30.3044 42.1004C29.8789 42.2814 29.6651 42.8145 29.8267 43.2909C29.9883 43.7675 30.4647 44.0067 30.8895 43.8259L32.1011 43.3105L32.4772 45.5852C32.5507 46.0296 32.897 46.3403 33.2865 46.3403C33.3362 46.3403 33.3868 46.3351 33.4375 46.3246C33.8849 46.2319 34.1805 45.7504 34.0977 45.2492L33.6669 42.6443L40.0861 39.913C40.6809 39.6601 41.3399 39.7143 41.8943 40.0619C42.4478 40.4088 42.8313 41.0068 42.9464 41.7023L44.6133 51.7816C44.7283 52.4767 44.5616 53.1871 44.156 53.7307ZM47.0959 46.5071C46.7115 46.5862 46.4297 46.9568 46.421 47.3945C46.4125 47.8322 46.6796 48.2163 47.0605 48.3142L53.1953 49.8901L53.042 51.0417L45.9302 49.6103L44.8185 42.8878L51.013 38.7923L51.529 39.8157L46.3041 43.7275C45.9793 43.9707 45.8516 44.4361 45.9986 44.8417C46.1455 45.2472 46.5267 45.4815 46.911 45.4024L55.1184 43.7138L55.3012 44.8188L47.0959 46.5071Z" fill="#071F41"/>
</svg>
