<svg width="56" height="58" viewBox="0 0 56 58" fill="none" xmlns="http://www.w3.org/2000/svg">
<g clip-path="url(#clip0_12_0)">
<path d="M26.973 23.3574C26.7822 23.289 26.5878 23.2178 26.3931 23.1446V19.5633C27.037 19.8222 27.4893 20.1849 27.5071 20.1994C27.9725 20.5866 28.6594 20.5194 29.0433 20.0486C29.4284 19.5763 29.3632 18.8768 28.8977 18.4861C28.8337 18.4323 27.8175 17.5947 26.3932 17.2415V16.6976C26.3932 16.0847 25.9034 15.5879 25.2995 15.5879C24.6955 15.5879 24.2057 16.0847 24.2057 16.6976V17.1901C24.0899 17.2154 23.9736 17.2439 23.8565 17.2797C22.5991 17.664 21.6914 18.7393 21.4282 20.1562C21.1726 21.5328 21.6147 22.9057 22.5546 23.6535C22.9835 23.9948 23.5062 24.3077 24.2058 24.633V29.3264C23.7105 29.2559 23.3391 29.0853 22.7474 28.6926C22.242 28.357 21.5642 28.5007 21.2333 29.0137C20.9027 29.5266 21.0442 30.2143 21.5499 30.5499C22.5888 31.2395 23.3214 31.4816 24.2058 31.559V32.249C24.2058 32.8619 24.6956 33.3588 25.2996 33.3588C25.9035 33.3588 26.3933 32.8619 26.3933 32.249V31.4527C28.2125 30.9849 29.3785 29.4083 29.6361 27.8539C29.9672 25.8545 28.897 24.0476 26.973 23.3574ZM24.2057 22.1223C24.0973 22.0518 23.9962 21.9803 23.9045 21.9072C23.6093 21.6723 23.475 21.1212 23.5779 20.5672C23.6124 20.3815 23.752 19.8298 24.2057 19.5371V22.1223ZM27.4787 27.4862C27.3787 28.0891 27.0103 28.7229 26.3931 29.0808V25.509C27.5802 26.0155 27.5506 27.0516 27.4787 27.4862Z" fill="#071F41"/>
<path d="M51.7903 24.0752L44.8438 19.4209V1.47496C44.8438 0.86206 44.354 0.365234 43.75 0.365234H17.5C16.896 0.365234 16.4062 0.86206 16.4062 1.47496V5.69194H12.25C11.646 5.69194 11.1562 6.18876 11.1562 6.80167V19.421L4.20973 24.0753C3.90327 24.2806 3.71875 24.6285 3.71875 25.0012V56.0737C3.71875 56.6866 4.20853 57.1834 4.8125 57.1834H23.0781C23.6821 57.1834 24.1719 56.6866 24.1719 56.0737C24.1719 55.4608 23.6821 54.9639 23.0781 54.9639H7.45314L23.3994 38.7847L27.3973 41.4635C27.58 41.5859 27.79 41.6472 28 41.6472C28.21 41.6472 28.42 41.5859 28.6028 41.4635L32.6007 38.7847L48.547 54.9639H32.9219C32.3179 54.9639 31.8281 55.4608 31.8281 56.0737C31.8281 56.6866 32.3179 57.1834 32.9219 57.1834H51.1875C51.7915 57.1834 52.2812 56.6866 52.2812 56.0737V25.0012C52.2812 24.6285 52.0967 24.2806 51.7903 24.0752ZM49.2027 25.0012L44.8438 27.9218V22.0807L49.2027 25.0012ZM18.5938 2.58469H42.6562V29.3876L39.5938 31.4396V6.80167C39.5938 6.18876 39.104 5.69194 38.5 5.69194H18.5938V2.58469ZM11.1562 22.0807V27.9218L6.79733 25.0012L11.1562 22.0807ZM5.90625 53.3946V27.064L21.536 37.5364L5.90625 53.3946ZM28 39.2076L13.3438 29.3874V7.9114H37.4062V32.9052L28 39.2076ZM50.0938 27.064V53.3946L34.464 37.5363L50.0938 27.064Z" fill="#071F41"/>
<path d="M28 54.9639C27.7123 54.9639 27.4302 55.0826 27.2267 55.289C27.0233 55.4954 26.9062 55.7817 26.9062 56.0736C26.9062 56.3655 27.0232 56.6518 27.2267 56.8582C27.4303 57.0646 27.7123 57.1833 28 57.1833C28.2877 57.1833 28.5698 57.0646 28.7732 56.8582C28.9766 56.6518 29.0938 56.3655 29.0938 56.0736C29.0938 55.7817 28.9767 55.4954 28.7732 55.289C28.5698 55.0826 28.2877 54.9639 28 54.9639Z" fill="#071F41"/>
</g>
<defs>
<clipPath id="clip0_12_0">
<rect width="56" height="56.8182" fill="white" transform="translate(0 0.365234)"/>
</clipPath>
</defs>
</svg>
