<svg width="42" height="57" fill="none" xmlns="http://www.w3.org/2000/svg"><path d="M13.423 34.163a.822.822 0 0 0-.82-.825H4.648c-.453 0-.82.37-.82.825v5.33c0 .456.367.825.82.825h7.955c.453 0 .82-.37.82-.825v-5.33Zm-1.64 4.506H5.468v-3.682h6.315v3.682ZM32.933 38.541h4.419c.453 0 .82-.369.82-.824a.822.822 0 0 0-.82-.825h-4.42c-.453 0-.82.37-.82.825 0 .455.367.824.82.824ZM32.933 34.987h4.419c.453 0 .82-.37.82-.825a.822.822 0 0 0-.82-.824h-4.42c-.453 0-.82.37-.82.825 0 .455.367.824.82.824Z" fill="#071F41"/><path d="M40.888 43.056c-.454 0-.82.37-.82.825v10.606a.286.286 0 0 1-.285.286H2.217a.286.286 0 0 1-.284-.286V36.24a.822.822 0 0 0-.82-.824c-.454 0-.821.369-.821.824v18.248c0 1.067.864 1.936 1.925 1.936h37.566a1.932 1.932 0 0 0 1.925-1.936V43.881a.822.822 0 0 0-.82-.825ZM39.783 28.118H26.24v-4.182a12.507 12.507 0 0 0 7.181-11.32C33.421 5.732 27.85.13 21 .13c-2.377 0-4.688.678-6.682 1.959a12.496 12.496 0 0 0-4.5 5.084.827.827 0 0 0 .38 1.102.819.819 0 0 0 1.096-.382C13.114 4.122 16.834 1.78 21 1.78c5.945 0 10.78 4.861 10.78 10.837 0 5.975-4.835 10.836-10.78 10.836-5.945 0-10.78-4.86-10.78-10.836 0-.422.023-.846.071-1.262a.82.82 0 1 0-1.63-.19c-.054.48-.082.967-.082 1.452 0 5.004 2.943 9.329 7.181 11.319v4.182H2.217a1.932 1.932 0 0 0-1.925 1.936v2.318c0 .456.367.825.82.825.453 0 .82-.37.82-.825v-2.318c0-.158.128-.286.285-.286h10.677l7.489 8.603a.82.82 0 0 0 1.234 0l7.49-8.603h10.676c.157 0 .284.128.284.286v9.957c0 .455.367.825.82.825.454 0 .82-.37.82-.825v-9.957a1.933 1.933 0 0 0-1.924-1.936ZM21 36.575l-5.926-6.808h1.506c.454 0 .82-.369.82-.824v-4.375c1.14.347 2.349.535 3.6.535s2.46-.188 3.599-.535v4.375c0 .455.367.824.82.824h1.507L21 36.575Z" fill="#071F41"/><path d="M4.648 48.426h2.21c.453 0 .82-.37.82-.825a.822.822 0 0 0-.82-.824h-2.21c-.453 0-.82.37-.82.824 0 .456.367.825.82.825ZM12.603 46.777h-2.21c-.453 0-.82.37-.82.824 0 .456.367.825.82.825h2.21c.453 0 .82-.37.82-.825a.822.822 0 0 0-.82-.824ZM18.348 48.426c.453 0 .82-.37.82-.825a.822.822 0 0 0-.82-.824h-2.21c-.453 0-.82.37-.82.824 0 .456.367.825.82.825h2.21ZM24.093 48.426c.454 0 .82-.37.82-.825a.822.822 0 0 0-.82-.824h-2.21c-.452 0-.82.37-.82.824 0 .456.368.825.82.825h2.21ZM4.648 52.868h8.839c.453 0 .82-.369.82-.824a.822.822 0 0 0-.82-.825h-8.84c-.452 0-.82.37-.82.825 0 .455.368.824.82.824ZM27.693 49.823c0 1.68 1.36 3.046 3.03 3.046.87 0 1.656-.372 2.21-.965a3.014 3.014 0 0 0 2.21.965c1.67 0 3.03-1.367 3.03-3.046 0-1.68-1.36-3.046-3.03-3.046-.872 0-1.657.372-2.21.965a3.014 3.014 0 0 0-2.21-.965 3.042 3.042 0 0 0-3.03 3.046Zm7.45-1.397c.765 0 1.389.627 1.389 1.397s-.623 1.396-1.39 1.396c-.766 0-1.39-.626-1.39-1.396 0-.77.624-1.397 1.39-1.397Zm-3.03 1.397c0 .77-.624 1.396-1.39 1.396-.766 0-1.39-.626-1.39-1.396 0-.77.624-1.397 1.39-1.397.766 0 1.39.627 1.39 1.397ZM18.282 16.932a.818.818 0 0 0-1.135.239.827.827 0 0 0 .237 1.14c1.061.698 1.785.905 2.721.957v.909c0 .455.368.824.82.824.454 0 .821-.369.821-.824v-.974c1.86-.364 2.946-1.904 3.186-3.342.309-1.846-.652-3.452-2.448-4.09-.243-.086-.49-.176-.738-.27V7.546c.626.148.999.466 1.031.494a.817.817 0 0 0 1.154-.052.828.828 0 0 0-.047-1.165c-.047-.044-.84-.761-2.138-.955v-.812a.822.822 0 0 0-.82-.825c-.453 0-.82.37-.82.825v.875c-.125.028-.252.06-.382.099-1.182.358-2.066 1.375-2.305 2.654-.22 1.167.152 2.291.969 2.935.434.343.976.657 1.717.988v5.01c-.646-.047-1.09-.204-1.823-.685Zm1.119-6.61c-.333-.263-.475-.773-.37-1.332.094-.503.426-1.109 1.075-1.35v3.133a5 5 0 0 1-.705-.451Zm2.536 3.004c1.537.546 1.443 1.87 1.377 2.262-.128.769-.662 1.583-1.568 1.903v-4.233l.191.068Z" fill="#071F41"/></svg>