<svg width="50" height="57" fill="none" xmlns="http://www.w3.org/2000/svg"><path d="M23.973 22.91c-.19-.068-.385-.138-.58-.21V19.15a4.778 4.778 0 0 1 1.114.63 1.09 1.09 0 0 0 1.536-.15c.385-.467.32-1.16-.145-1.547a6.822 6.822 0 0 0-2.505-1.233v-.54c0-.606-.49-1.099-1.094-1.099-.604 0-1.093.493-1.093 1.1v.488a4.48 4.48 0 0 0-.35.088c-1.257.381-2.165 1.447-2.428 2.85-.255 1.364.187 2.724 1.127 3.465.428.338.951.649 1.65.97v4.65c-.494-.07-.866-.238-1.458-.627a1.09 1.09 0 0 0-1.514.318c-.33.508-.189 1.19.317 1.522 1.039.683 1.771.923 2.656 1v.683c0 .608.49 1.1 1.094 1.1.604 0 1.093-.492 1.093-1.1v-.789c1.82-.463 2.985-2.025 3.243-3.565.331-1.981-.739-3.771-2.663-4.455Zm-2.767-1.224c-.109-.07-.21-.14-.302-.213-.295-.232-.429-.778-.326-1.327.034-.184.174-.73.628-1.021v2.561ZM24.479 27a2.275 2.275 0 0 1-1.086 1.58v-3.538c1.187.501 1.158 1.528 1.086 1.958Z" fill="#FF751D"/><path d="m48.79 23.62-6.946-4.61V1.23c0-.607-.49-1.1-1.094-1.1H14.5c-.604 0-1.094.493-1.094 1.1v4.178H9.25c-.604 0-1.094.492-1.094 1.1V19.01L1.21 23.62a1.101 1.101 0 0 0-.491.918v30.785c0 .607.49 1.1 1.094 1.1h18.265c.604 0 1.094-.493 1.094-1.1 0-.607-.49-1.1-1.094-1.1H4.453L20.4 38.195l3.998 2.654a1.089 1.089 0 0 0 1.206 0l3.998-2.654 15.946 16.03H29.922c-.604 0-1.094.492-1.094 1.099s.49 1.1 1.094 1.1h18.265c.605 0 1.094-.493 1.094-1.1V24.538c0-.369-.184-.714-.49-.917Zm-2.587.918-4.36 2.894v-5.787l4.36 2.893ZM15.593 2.33h24.063v26.555l-3.062 2.033V6.507c0-.607-.49-1.1-1.094-1.1H15.594V2.33ZM8.157 21.645v5.787l-4.359-2.894 4.36-2.893Zm-5.25 31.024V26.582l15.63 10.375L2.906 52.67ZM25 38.613l-14.656-9.73V7.608h24.062v24.762L25 38.613Zm22.094-12.031v26.087l-15.63-15.712 15.63-10.375Z" fill="#FF751D"/><path d="M25 54.224a1.1 1.1 0 0 0 0 2.199 1.099 1.099 0 0 0 0-2.2Z" fill="#FF751D"/></svg>